<svg width="37" height="38" viewBox="0 0 37 38" fill="none" xmlns="http://www.w3.org/2000/svg">
<rect x="0.5" y="0.5" width="36" height="37" rx="18" stroke="#8F01C2"/>
<path d="M13.6 17.324H12.22V23H11.128V17.324H10.276V16.424H11.128V15.956C11.128 15.22 11.316 14.684 11.692 14.348C12.076 14.004 12.688 13.832 13.528 13.832V14.744C13.048 14.744 12.708 14.84 12.508 15.032C12.316 15.216 12.22 15.524 12.22 15.956V16.424H13.6V17.324ZM22.7812 16.304C23.2932 16.304 23.7492 16.412 24.1492 16.628C24.5492 16.836 24.8652 17.152 25.0972 17.576C25.3292 18 25.4452 18.516 25.4452 19.124V23H24.3652V19.28C24.3652 18.624 24.2012 18.124 23.8732 17.78C23.5532 17.428 23.1172 17.252 22.5652 17.252C21.9972 17.252 21.5452 17.436 21.2092 17.804C20.8732 18.164 20.7052 18.688 20.7052 19.376V23H19.6252V19.28C19.6252 18.624 19.4612 18.124 19.1332 17.78C18.8132 17.428 18.3772 17.252 17.8252 17.252C17.2572 17.252 16.8052 17.436 16.4692 17.804C16.1332 18.164 15.9652 18.688 15.9652 19.376V23H14.8732V16.424H15.9652V17.372C16.1812 17.028 16.4692 16.764 16.8292 16.58C17.1972 16.396 17.6012 16.304 18.0412 16.304C18.5932 16.304 19.0812 16.428 19.5052 16.676C19.9292 16.924 20.2452 17.288 20.4532 17.768C20.6372 17.304 20.9412 16.944 21.3652 16.688C21.7892 16.432 22.2612 16.304 22.7812 16.304Z" fill="white"/>
</svg>
