<svg width="5" height="15" viewBox="0 0 5 15" fill="none" xmlns="http://www.w3.org/2000/svg">
<path d="M4.284 7.944C3.468 8.096 3.06 8.516 3.06 9.204C3.06 9.508 3.1 10.028 3.18 10.764C3.26 11.548 3.3 12.116 3.3 12.468C3.3 13.044 3.136 13.484 2.808 13.788C2.488 14.092 2.056 14.244 1.512 14.244H0.816V13.296H1.308C1.62 13.296 1.852 13.224 2.004 13.08C2.156 12.944 2.232 12.716 2.232 12.396C2.232 12.164 2.216 11.88 2.184 11.544C2.152 11.2 2.132 10.968 2.124 10.848C2.044 10.08 2.004 9.52 2.004 9.168C2.004 8.744 2.108 8.388 2.316 8.1C2.532 7.812 2.86 7.62 3.3 7.524V7.5C2.86 7.404 2.532 7.216 2.316 6.936C2.108 6.648 2.004 6.292 2.004 5.868C2.004 5.516 2.044 4.956 2.124 4.188C2.132 4.068 2.152 3.84 2.184 3.504C2.216 3.16 2.232 2.872 2.232 2.64C2.232 2.32 2.156 2.092 2.004 1.956C1.852 1.812 1.62 1.74 1.308 1.74H0.816V0.792H1.512C2.056 0.792 2.488 0.944 2.808 1.248C3.136 1.552 3.3 1.992 3.3 2.568C3.3 2.92 3.26 3.488 3.18 4.272C3.1 5.008 3.06 5.528 3.06 5.832C3.06 6.52 3.468 6.94 4.284 7.092V7.944Z" fill="#B983FF"/>
</svg>
