<svg width="12" height="12" viewBox="0 0 12 12" fill="none" xmlns="http://www.w3.org/2000/svg">
<path d="M9.375 7.6875V8.0625H9.9375C10.0867 8.0625 10.2298 8.12176 10.3352 8.22725C10.4407 8.33274 10.5 8.47582 10.5 8.625C10.5 8.77418 10.4407 8.91726 10.3352 9.02275C10.2298 9.12824 10.0867 9.1875 9.9375 9.1875H9.375V9.75C9.375 9.89918 9.31574 10.0423 9.21025 10.1477C9.10476 10.2532 8.96168 10.3125 8.8125 10.3125C8.66332 10.3125 8.52024 10.2532 8.41475 10.1477C8.30926 10.0423 8.25 9.89918 8.25 9.75V7.125C8.25 6.97582 8.30926 6.83274 8.41475 6.72725C8.52024 6.62176 8.66332 6.5625 8.8125 6.5625H10.3125C10.4617 6.5625 10.6048 6.62176 10.7102 6.72725C10.8157 6.83274 10.875 6.97582 10.875 7.125C10.875 7.27418 10.8157 7.41726 10.7102 7.52275C10.6048 7.62824 10.4617 7.6875 10.3125 7.6875H9.375ZM4.3125 8.0625C4.3125 8.46032 4.15446 8.84186 3.87316 9.12316C3.59186 9.40446 3.21032 9.5625 2.8125 9.5625H2.625V9.75C2.625 9.89918 2.56574 10.0423 2.46025 10.1477C2.35476 10.2532 2.21168 10.3125 2.0625 10.3125C1.91332 10.3125 1.77024 10.2532 1.66475 10.1477C1.55926 10.0423 1.5 9.89918 1.5 9.75V7.125C1.5 6.97582 1.55926 6.83274 1.66475 6.72725C1.77024 6.62176 1.91332 6.5625 2.0625 6.5625H2.8125C3.21032 6.5625 3.59186 6.72054 3.87316 7.00184C4.15446 7.28314 4.3125 7.66468 4.3125 8.0625ZM3.1875 8.0625C3.1875 7.96304 3.14799 7.86766 3.07766 7.79733C3.00734 7.72701 2.91196 7.6875 2.8125 7.6875H2.625V8.4375H2.8125C2.91196 8.4375 3.00734 8.39799 3.07766 8.32767C3.14799 8.25734 3.1875 8.16196 3.1875 8.0625ZM7.875 8.4375C7.875 8.93478 7.67746 9.41169 7.32583 9.76333C6.97419 10.115 6.49728 10.3125 6 10.3125H5.25C5.10082 10.3125 4.95774 10.2532 4.85225 10.1477C4.74676 10.0423 4.6875 9.89918 4.6875 9.75V7.125C4.6875 6.97582 4.74676 6.83274 4.85225 6.72725C4.95774 6.62176 5.10082 6.5625 5.25 6.5625H6C6.49728 6.5625 6.97419 6.76004 7.32583 7.11167C7.67746 7.46331 7.875 7.94022 7.875 8.4375ZM6.75 8.4375C6.75 8.23859 6.67098 8.04782 6.53033 7.90717C6.38968 7.76652 6.19891 7.6875 6 7.6875H5.8125V9.1875H6C6.19891 9.1875 6.38968 9.10848 6.53033 8.96783C6.67098 8.82718 6.75 8.63641 6.75 8.4375ZM1.6875 5.0625V1.875C1.6875 1.62636 1.78627 1.3879 1.96209 1.21209C2.1379 1.03627 2.37636 0.9375 2.625 0.9375H7.125C7.19892 0.937503 7.27212 0.952078 7.34041 0.98039C7.40869 1.0087 7.47073 1.0502 7.52297 1.1025L10.148 3.7275C10.2533 3.83296 10.3125 3.97593 10.3125 4.125V5.0625C10.3125 5.21168 10.2532 5.35476 10.1477 5.46025C10.0423 5.56574 9.89918 5.625 9.75 5.625C9.60082 5.625 9.45774 5.56574 9.35225 5.46025C9.24676 5.35476 9.1875 5.21168 9.1875 5.0625V4.875H6.9375C6.78832 4.875 6.64524 4.81574 6.53975 4.71025C6.43426 4.60476 6.375 4.46168 6.375 4.3125V2.0625H2.8125V5.0625C2.8125 5.21168 2.75324 5.35476 2.64775 5.46025C2.54226 5.56574 2.39918 5.625 2.25 5.625C2.10082 5.625 1.95774 5.56574 1.85225 5.46025C1.74676 5.35476 1.6875 5.21168 1.6875 5.0625ZM7.5 2.67188V3.75H8.57812L7.5 2.67188Z" fill="white"/>
</svg>
