<svg width="4" height="15" viewBox="0 0 4 15" fill="none" xmlns="http://www.w3.org/2000/svg">
<path d="M0.032 7.176C0.872 6.984 1.292 6.516 1.292 5.772C1.292 5.404 1.248 4.892 1.16 4.236C1.152 4.164 1.128 3.944 1.088 3.576C1.048 3.2 1.028 2.856 1.028 2.544C1.028 1.968 1.184 1.536 1.496 1.248C1.808 0.952 2.232 0.804 2.768 0.804H3.368V1.536H2.912C2.56 1.536 2.292 1.62 2.108 1.788C1.932 1.956 1.844 2.228 1.844 2.604C1.844 2.884 1.864 3.204 1.904 3.564C1.944 3.916 1.968 4.132 1.976 4.212C2.064 4.884 2.108 5.412 2.108 5.796C2.108 6.236 1.996 6.608 1.772 6.912C1.556 7.208 1.22 7.408 0.764 7.512V7.536C1.22 7.64 1.556 7.844 1.772 8.148C1.996 8.444 2.108 8.812 2.108 9.252C2.108 9.628 2.064 10.152 1.976 10.824C1.968 10.912 1.944 11.136 1.904 11.496C1.864 11.848 1.844 12.164 1.844 12.444C1.844 12.82 1.932 13.092 2.108 13.26C2.292 13.428 2.56 13.512 2.912 13.512H3.368V14.244H2.768C2.232 14.244 1.808 14.096 1.496 13.8C1.184 13.512 1.028 13.08 1.028 12.504C1.028 12.192 1.048 11.852 1.088 11.484C1.128 11.108 1.152 10.88 1.16 10.8C1.248 10.136 1.292 9.628 1.292 9.276C1.292 8.532 0.872 8.06 0.032 7.86V7.176Z" fill="#B983FF"/>
</svg>
