<svg width="15" height="20" viewBox="0 0 15 20" fill="none" xmlns="http://www.w3.org/2000/svg">
<path fill-rule="evenodd" clip-rule="evenodd" d="M10.6228 0.000244148C11.4353 0.000193631 12.2286 0.24758 12.897 0.709481C13.5655 1.17138 14.0774 1.82589 14.3647 2.58591C14.652 3.34594 14.701 4.17542 14.5052 4.96399C14.3095 5.75257 13.8782 6.46282 13.2688 7.00024C14.0142 7.65606 14.489 8.56562 14.601 9.55207C14.713 10.5385 14.4541 11.5314 13.8747 12.3376C13.2954 13.1438 12.4369 13.7057 11.4662 13.9141C10.4955 14.1226 9.48206 13.9626 8.62281 13.4652V16.0002C8.62277 16.6686 8.45525 17.3264 8.13554 17.9133C7.81584 18.5003 7.35415 18.9978 6.79265 19.3604C6.23115 19.7229 5.58774 19.939 4.92122 19.9889C4.2547 20.0387 3.5863 19.9208 2.97711 19.6458C2.36791 19.3708 1.83734 18.9475 1.43385 18.4147C1.03037 17.8818 0.766852 17.2563 0.667366 16.5954C0.56788 15.9345 0.635602 15.2591 0.864344 14.6311C1.09309 14.0031 1.47556 13.4424 1.97681 13.0002C1.55123 12.6249 1.21039 12.1632 0.976944 11.646C0.743495 11.1287 0.622777 10.5677 0.622808 10.0002C0.622777 9.43276 0.743495 8.87177 0.976944 8.35452C1.21039 7.83728 1.55123 7.37563 1.97681 7.00024C1.36743 6.46282 0.936161 5.75257 0.740397 4.96399C0.544634 4.17542 0.593658 3.34594 0.880946 2.58591C1.16823 1.82589 1.68016 1.17138 2.3486 0.709481C3.01705 0.24758 3.8103 0.000193631 4.62281 0.000244148H10.6228ZM6.62281 14.0002H4.62281C4.22725 14.0002 3.84057 14.1175 3.51167 14.3373C3.18277 14.5571 2.92642 14.8694 2.77505 15.2349C2.62367 15.6003 2.58407 16.0025 2.66124 16.3904C2.73841 16.7784 2.92889 17.1348 3.20859 17.4145C3.4883 17.6942 3.84467 17.8846 4.23263 17.9618C4.62059 18.039 5.02272 17.9994 5.38817 17.848C5.75363 17.6966 6.06598 17.4403 6.28575 17.1114C6.50551 16.7825 6.62281 16.3958 6.62281 16.0002V14.0002ZM6.62281 8.00024H4.62281C4.09237 8.00024 3.58367 8.21096 3.20859 8.58603C2.83352 8.9611 2.62281 9.46981 2.62281 10.0002C2.62281 10.5307 2.83352 11.0394 3.20859 11.4145C3.58367 11.7895 4.09237 12.0002 4.62281 12.0002H6.62281V8.00024ZM10.6228 8.00024C10.0924 8.00024 9.58367 8.21096 9.2086 8.58603C8.83352 8.9611 8.62281 9.46981 8.62281 10.0002C8.62281 10.5307 8.83352 11.0394 9.2086 11.4145C9.58367 11.7895 10.0924 12.0002 10.6228 12.0002C11.1532 12.0002 11.6619 11.7895 12.037 11.4145C12.4121 11.0394 12.6228 10.5307 12.6228 10.0002C12.6228 9.46981 12.4121 8.9611 12.037 8.58603C11.6619 8.21096 11.1532 8.00024 10.6228 8.00024ZM10.6228 2.00024H8.62281V6.00024H10.6228C11.1418 6.00257 11.6414 5.80306 12.016 5.44387C12.3906 5.08467 12.6109 4.59393 12.6304 4.0753C12.6498 3.55668 12.4669 3.0508 12.1203 2.66453C11.7737 2.27825 11.2905 2.04185 10.7728 2.00524L10.6228 2.00024ZM6.62281 2.00024H4.62281C4.09237 2.00024 3.58367 2.21096 3.20859 2.58603C2.83352 2.9611 2.62281 3.46981 2.62281 4.00024C2.62281 4.53068 2.83352 5.03939 3.20859 5.41446C3.58367 5.78953 4.09237 6.00024 4.62281 6.00024H6.62281V2.00024Z" fill="black"/>
</svg>
