<svg width="25" height="24" viewBox="0 0 25 24" fill="none" xmlns="http://www.w3.org/2000/svg">
<path d="M24.249 12.2998C24.249 14.9806 23.4858 17.3914 21.9594 19.5322C20.433 21.673 18.4618 23.1542 16.0458 23.9758C15.7642 24.0302 15.5586 23.993 15.429 23.8642C15.3651 23.802 15.3148 23.7272 15.2811 23.6446C15.2475 23.562 15.2312 23.4734 15.2334 23.3842V20.0038C15.2334 18.9678 14.9626 18.2098 14.421 17.7298C14.9615 17.6742 15.497 17.578 16.023 17.4418C16.4958 17.3138 16.985 17.1058 17.4906 16.8178C17.9757 16.5451 18.4051 16.1836 18.7566 15.7522C19.095 15.3298 19.371 14.769 19.5846 14.0698C19.7982 13.3706 19.905 12.5674 19.905 11.6602C19.905 10.3674 19.4938 9.26741 18.6714 8.36021C19.0554 7.38901 19.0134 6.29981 18.5454 5.09261C18.2542 4.99661 17.8326 5.05541 17.2806 5.26901C16.7801 5.45751 16.2987 5.69338 15.843 5.97341L15.249 6.35741C14.2735 6.07879 13.2636 5.93901 12.249 5.94221C11.2344 5.9394 10.2245 6.07958 9.24902 6.35861C9.03183 6.20855 8.81054 6.0645 8.58542 5.92661C8.30942 5.75541 7.87422 5.54981 7.27982 5.30981C6.68702 5.06981 6.23902 4.99781 5.93582 5.09381C5.47822 6.29941 5.44222 7.38821 5.82782 8.36021C5.00382 9.26741 4.59182 10.3674 4.59182 11.6602C4.59182 12.5674 4.69902 13.3682 4.91342 14.0626C5.12702 14.7562 5.40022 15.3166 5.73302 15.7438C6.07702 16.1812 6.5045 16.5458 6.99062 16.8166C7.49622 17.1046 7.98582 17.3126 8.45942 17.4406C8.93382 17.5702 9.46782 17.6666 10.0614 17.7298C9.64542 18.1138 9.39022 18.6638 9.29582 19.3798C9.07227 19.4886 8.83606 19.5693 8.59262 19.6198C8.2994 19.6773 8.00101 19.7043 7.70222 19.7002C7.35822 19.7002 7.01702 19.5854 6.67862 19.3558C6.34022 19.1254 6.05102 18.7918 5.81102 18.355C5.62464 18.0239 5.36578 17.7392 5.05382 17.5222C4.74662 17.3086 4.48862 17.1806 4.27982 17.1382L3.96782 17.0902C3.74942 17.0902 3.59822 17.1142 3.51422 17.1622C3.43022 17.2102 3.40422 17.2714 3.43622 17.3458C3.47087 17.4276 3.51826 17.5033 3.57662 17.5702C3.63689 17.642 3.70536 17.7064 3.78062 17.7622L3.88862 17.8414C4.11822 17.9494 4.34502 18.1526 4.56902 18.451C4.79302 18.7502 4.95702 19.0222 5.06102 19.267L5.21702 19.6354C5.35302 20.041 5.58262 20.3694 5.90582 20.6206C6.22902 20.8726 6.57782 21.0326 6.95222 21.1006C7.32662 21.1702 7.68862 21.2078 8.03822 21.2134C8.38702 21.2182 8.67622 21.1994 8.90582 21.157L9.26462 21.0934C9.26462 21.499 9.26742 21.9742 9.27302 22.519L9.28022 23.383C9.28022 23.575 9.21222 23.735 9.07622 23.863C8.94182 23.9926 8.73382 24.0302 8.45222 23.9758C6.03542 23.1534 4.06422 21.6722 2.53862 19.5322C1.01222 17.3906 0.249023 14.9798 0.249023 12.2998C0.249023 10.0678 0.785423 8.00981 1.85822 6.12581C2.89757 4.27737 4.40372 2.73399 6.22622 1.64981C8.04362 0.555783 10.1278 -0.0151966 12.249 -0.000191524C14.3707 -0.0154179 16.4553 0.55557 18.273 1.64981C20.0951 2.73415 21.6008 4.27752 22.6398 6.12581C23.7126 8.01061 24.249 10.0686 24.249 12.2998Z" fill="black"/>
</svg>
