<svg width="22" height="22" viewBox="0 0 22 22" fill="none" xmlns="http://www.w3.org/2000/svg">
<path d="M0.37207 0V22H22.0021V0H0.37207ZM11.8133 18.7463C11.494 19.4061 10.8846 19.8396 10.1784 20.0489C9.09329 20.3023 8.05539 20.1578 7.28329 19.6865C6.76659 19.364 6.36306 18.8677 6.08914 18.2959L7.73648 17.2698C7.75084 17.276 7.7941 17.3555 7.8519 17.4583C8.06197 17.8163 8.24314 18.0697 8.59926 18.2477C8.94914 18.3691 9.71727 18.4467 10.0139 17.8205C10.195 17.502 10.1374 16.478 10.1374 15.3451C10.1372 13.5648 10.1454 11.792 10.1454 10.032H12.1715C12.1715 11.968 12.1819 13.8016 12.1715 15.6908C12.1758 16.8488 12.2746 17.8812 11.8133 18.7463ZM20.2185 18.1641C19.5143 20.6144 15.5876 20.6939 14.0185 19.0751C13.687 18.694 13.4792 18.495 13.2814 18.0551C14.1153 17.5673 14.1153 17.5673 14.9266 17.0898C15.3674 17.7788 15.7749 18.1577 16.508 18.3128C17.5027 18.4364 18.5034 18.0888 18.2789 17.0143C18.0483 16.1367 16.2423 15.9232 15.0132 14.9848C13.7654 14.1324 13.4729 12.0613 14.4984 10.8779C14.8401 10.4401 15.4229 10.1135 16.0344 9.9565L16.6726 9.87254C17.8979 9.84738 18.6638 10.1765 19.226 10.815C19.3824 10.9762 19.5101 11.1501 19.7489 11.5269C19.0962 11.95 19.0983 11.946 18.1634 12.5616C17.9637 12.1241 17.6323 11.8496 17.2821 11.7302C16.7384 11.5627 16.0528 11.7448 15.9105 12.3292C15.8612 12.5092 15.8714 12.6768 15.9498 12.9742C16.1701 13.4851 16.9093 13.7072 17.5724 14.0172C19.4812 14.8046 20.1258 15.6489 20.2843 16.6538C20.4369 17.519 20.2474 18.0803 20.2185 18.1641Z" fill="black"/>
</svg>
