<svg width="12" height="12" viewBox="0 0 12 12" fill="none" xmlns="http://www.w3.org/2000/svg">
<path d="M3.46997 2.5C3.46984 2.76521 3.36435 3.01951 3.17672 3.20696C2.98909 3.3944 2.73469 3.49963 2.46947 3.4995C2.20425 3.49936 1.94995 3.39388 1.76251 3.20625C1.57507 3.01862 1.46984 2.76421 1.46997 2.499C1.4701 2.23378 1.57559 1.97948 1.76322 1.79204C1.95085 1.60459 2.20525 1.49936 2.47047 1.4995C2.73569 1.49963 2.98999 1.60511 3.17743 1.79274C3.36487 1.98037 3.4701 2.23478 3.46997 2.5ZM3.49997 4.24H1.49997V10.5H3.49997V4.24ZM6.65997 4.24H4.66997V10.5H6.63997V7.215C6.63997 5.385 9.02497 5.215 9.02497 7.215V10.5H11V6.535C11 3.45 7.46997 3.565 6.63997 5.08L6.65997 4.24Z" fill="white"/>
</svg>
