<svg width="22" height="24" viewBox="0 0 22 24" fill="none" xmlns="http://www.w3.org/2000/svg">
<path d="M10.3109 0.152723C10.483 0.0523043 10.6786 -0.000610352 10.8779 -0.000610352C11.0771 -0.000610352 11.2728 0.0523043 11.4449 0.152723L20.7659 5.59022C20.936 5.68915 21.0772 5.83097 21.1754 6.00153C21.2736 6.17209 21.3253 6.36542 21.3254 6.56222V17.4372C21.3253 17.634 21.2736 17.8274 21.1754 17.9979C21.0772 18.1685 20.936 18.3103 20.7659 18.4092L11.4449 23.8467C11.2728 23.9471 11.0771 24.0001 10.8779 24.0001C10.6786 24.0001 10.483 23.9471 10.3109 23.8467L7.98138 22.4877C7.72359 22.3373 7.5361 22.0907 7.46015 21.8021C7.3842 21.5135 7.42601 21.2065 7.57639 20.9487C7.72676 20.6909 7.97339 20.5034 8.26201 20.4275C8.55063 20.3515 8.85759 20.3933 9.11539 20.5437L10.8779 21.5727L19.0754 16.7907V7.20872L10.8779 2.42672L2.68188 7.20872V16.7907L4.35738 17.7687C4.87338 17.9337 5.51238 17.9742 5.96088 17.7762C6.19567 17.6734 6.3883 17.4935 6.50689 17.2662C6.66289 16.9842 6.80688 16.5147 6.80688 15.7497V7.87472C6.80688 7.57635 6.92541 7.29021 7.13639 7.07923C7.34737 6.86825 7.63352 6.74972 7.93188 6.74972C8.23025 6.74972 8.5164 6.86825 8.72738 7.07923C8.93836 7.29021 9.05688 7.57635 9.05688 7.87472V15.7497C9.05688 16.7847 8.86338 17.6577 8.47188 18.3597C8.11544 19.0147 7.55211 19.5332 6.86988 19.8342C5.66088 20.3682 4.32438 20.1492 3.50688 19.8552C3.44236 19.832 3.3801 19.8028 3.32088 19.7682L0.989885 18.4092C0.820035 18.3101 0.679132 18.1682 0.581225 17.9977C0.483318 17.8271 0.431827 17.6339 0.431885 17.4372V6.56222C0.431827 6.36557 0.483318 6.17234 0.581225 6.00179C0.679132 5.83124 0.820035 5.68934 0.989885 5.59022L10.3109 0.152723ZM11.3009 7.92422C11.8964 7.21622 12.8264 6.74972 14.0879 6.74972C15.2579 6.74972 16.1504 7.15172 16.7549 7.78922C16.86 7.89586 16.9428 8.02241 16.9983 8.16145C17.0539 8.30049 17.0812 8.44922 17.0785 8.59893C17.0758 8.74864 17.0433 8.89631 16.9829 9.03329C16.9224 9.17027 16.8352 9.2938 16.7263 9.39664C16.6175 9.49948 16.4893 9.57956 16.3491 9.63219C16.2089 9.68481 16.0596 9.70893 15.91 9.70311C15.7604 9.6973 15.6134 9.66168 15.4777 9.59833C15.3421 9.53499 15.2204 9.4452 15.1199 9.33422C14.9864 9.19772 14.7119 8.99972 14.0864 8.99972C13.4234 8.99972 13.1504 9.22172 13.0229 9.37172C12.8914 9.53191 12.8152 9.73023 12.8054 9.93722C12.8054 10.0617 12.8594 10.3077 13.0229 10.5027C13.1504 10.6527 13.4234 10.8747 14.0879 10.8747C14.1955 10.8744 14.3026 10.8896 14.4059 10.9197C15.3359 11.0547 16.0439 11.4717 16.5299 12.0492C17.0879 12.7137 17.2739 13.4997 17.2739 14.0622C17.2739 14.6247 17.0879 15.4107 16.5299 16.0752C15.9344 16.7832 15.0044 17.2497 13.7429 17.2497C12.5729 17.2497 11.6804 16.8477 11.0774 16.2102C10.8798 15.9921 10.7756 15.7053 10.787 15.4113C10.7984 15.1172 10.9246 14.8394 11.1385 14.6373C11.3524 14.4352 11.6369 14.3249 11.9311 14.3301C12.2254 14.3354 12.5058 14.4557 12.7124 14.6652C12.8429 14.8032 13.1189 14.9997 13.7429 14.9997C14.4059 14.9997 14.6804 14.7777 14.8079 14.6277C14.9388 14.4673 15.0145 14.269 15.0239 14.0622C15.0141 13.8552 14.9378 13.6569 14.8064 13.4967C14.6804 13.3467 14.4059 13.1247 13.7429 13.1247C13.6348 13.1252 13.5272 13.11 13.4234 13.0797C12.4934 12.9447 11.7854 12.5277 11.3009 11.9502C10.8284 11.3848 10.5651 10.674 10.5554 9.93722C10.5554 9.37472 10.7414 8.58872 11.3009 7.92422Z" fill="black"/>
</svg>
