<svg width="21" height="21" viewBox="0 0 21 21" fill="none" xmlns="http://www.w3.org/2000/svg">
<path fill-rule="evenodd" clip-rule="evenodd" d="M4.5 6.75H10.128C10.4264 6.75 10.7125 6.63147 10.9235 6.4205C11.1345 6.20952 11.253 5.92337 11.253 5.625C11.253 5.32663 11.1345 5.04048 10.9235 4.8295C10.7125 4.61853 10.4264 4.5 10.128 4.5H6.75C6.75 3.90326 6.98705 3.33097 7.40901 2.90901C7.83097 2.48705 8.40326 2.25 9 2.25H12C12.5967 2.25 13.169 2.48705 13.591 2.90901C14.0129 3.33097 14.25 3.90326 14.25 4.5V7.5C14.25 8.535 13.41 9.375 12.375 9.375H8.625C7.53098 9.375 6.48177 9.8096 5.70818 10.5832C4.9346 11.3568 4.5 12.406 4.5 13.5V14.25C3.90326 14.25 3.33097 14.0129 2.90901 13.591C2.48705 13.169 2.25 12.5967 2.25 12V9C2.25 8.40326 2.48705 7.83097 2.90901 7.40901C3.33097 6.98705 3.90326 6.75 4.5 6.75ZM6.75 14.25V16.5C6.75 17.0967 6.98705 17.669 7.40901 18.091C7.83097 18.5129 8.40326 18.75 9 18.75H12C12.5967 18.75 13.169 18.5129 13.591 18.091C14.0129 17.669 14.25 17.0967 14.25 16.5H10.875C10.5766 16.5 10.2905 16.3815 10.0795 16.1705C9.86853 15.9595 9.75 15.6734 9.75 15.375C9.75 15.0766 9.86853 14.7905 10.0795 14.5795C10.2905 14.3685 10.5766 14.25 10.875 14.25H16.5C17.0967 14.25 17.669 14.0129 18.091 13.591C18.5129 13.169 18.75 12.5967 18.75 12V9C18.75 8.40326 18.5129 7.83097 18.091 7.40901C17.669 6.98705 17.0967 6.75 16.5 6.75V7.5C16.5 8.59402 16.0654 9.64323 15.2918 10.4168C14.5182 11.1904 13.469 11.625 12.375 11.625H8.625C7.59 11.625 6.75 12.465 6.75 13.5V14.25ZM9 0C7.80653 0 6.66193 0.474106 5.81802 1.31802C4.97411 2.16193 4.5 3.30653 4.5 4.5C3.30653 4.5 2.16193 4.97411 1.31802 5.81802C0.474106 6.66193 0 7.80653 0 9V12C0 13.1935 0.474106 14.3381 1.31802 15.182C2.16193 16.0259 3.30653 16.5 4.5 16.5C4.5 17.6935 4.97411 18.8381 5.81802 19.682C6.66193 20.5259 7.80653 21 9 21H12C13.1935 21 14.3381 20.5259 15.182 19.682C16.0259 18.8381 16.5 17.6935 16.5 16.5C17.6935 16.5 18.8381 16.0259 19.682 15.182C20.5259 14.3381 21 13.1935 21 12V9C21 7.80653 20.5259 6.66193 19.682 5.81802C18.8381 4.97411 17.6935 4.5 16.5 4.5C16.5 3.30653 16.0259 2.16193 15.182 1.31802C14.3381 0.474106 13.1935 0 12 0H9Z" fill="black"/>
</svg>
