<svg width="22" height="20" viewBox="0 0 22 20" fill="none" xmlns="http://www.w3.org/2000/svg">
<path d="M11.1255 8.49302C12.1555 8.49302 12.9955 9.33302 12.9955 10.383C12.9955 11.383 12.1555 12.233 11.1255 12.233C10.0955 12.233 9.25549 11.383 9.25549 10.383C9.25549 9.33302 10.0955 8.49302 11.1255 8.49302ZM6.49549 18.383C7.12549 18.763 8.50549 18.183 10.0955 16.683C9.57549 16.093 9.06549 15.453 8.58549 14.783C7.77971 14.7053 6.9786 14.5852 6.18549 14.423C5.67549 16.563 5.86549 18.033 6.49549 18.383ZM7.20549 12.643L6.91549 12.133C6.80549 12.423 6.69549 12.713 6.62549 12.993C6.89549 13.053 7.19549 13.103 7.50549 13.153L7.20549 12.643ZM13.7455 11.883L14.5555 10.383L13.7455 8.88302C13.4455 8.35302 13.1255 7.88302 12.8355 7.41302C12.2955 7.38302 11.7255 7.38302 11.1255 7.38302C10.5255 7.38302 9.95549 7.38302 9.41549 7.41302C9.12549 7.88302 8.80549 8.35302 8.50549 8.88302L7.69549 10.383L8.50549 11.883C8.80549 12.413 9.12549 12.883 9.41549 13.353C9.95549 13.383 10.5255 13.383 11.1255 13.383C11.7255 13.383 12.2955 13.383 12.8355 13.353C13.1255 12.883 13.4455 12.413 13.7455 11.883ZM11.1255 5.16302C10.9355 5.38302 10.7355 5.61302 10.5355 5.88302H11.7155C11.5155 5.61302 11.3155 5.38302 11.1255 5.16302ZM11.1255 15.603C11.3155 15.383 11.5155 15.153 11.7155 14.883H10.5355C10.7355 15.153 10.9355 15.383 11.1255 15.603ZM15.7455 2.38302C15.1255 2.00302 13.7455 2.58302 12.1555 4.08302C12.6755 4.67302 13.1855 5.31302 13.6655 5.98302C14.4855 6.06302 15.2955 6.18302 16.0655 6.34302C16.5755 4.20302 16.3855 2.73302 15.7455 2.38302ZM15.0455 8.12302L15.3355 8.63302C15.4455 8.34302 15.5555 8.05302 15.6255 7.77302C15.3555 7.71302 15.0555 7.66302 14.7455 7.61302L15.0455 8.12302ZM16.4955 1.07302C17.9655 1.91302 18.1255 4.12302 17.5055 6.70302C20.0455 7.45302 21.8755 8.69302 21.8755 10.383C21.8755 12.073 20.0455 13.313 17.5055 14.063C18.1255 16.643 17.9655 18.853 16.4955 19.693C15.0355 20.533 13.0455 19.573 11.1255 17.743C9.20549 19.573 7.21549 20.533 5.74549 19.693C4.28549 18.853 4.12549 16.643 4.74549 14.063C2.20549 13.313 0.375488 12.073 0.375488 10.383C0.375488 8.69302 2.20549 7.45302 4.74549 6.70302C4.12549 4.12302 4.28549 1.91302 5.74549 1.07302C7.21549 0.233024 9.20549 1.19302 11.1255 3.02302C13.0455 1.19302 15.0355 0.233024 16.4955 1.07302ZM16.2055 10.383C16.5455 11.133 16.8455 11.883 17.0955 12.643C19.1955 12.013 20.3755 11.113 20.3755 10.383C20.3755 9.65302 19.1955 8.75302 17.0955 8.12302C16.8455 8.88302 16.5455 9.63302 16.2055 10.383ZM6.04549 10.383C5.70549 9.63302 5.40549 8.88302 5.15549 8.12302C3.05549 8.75302 1.87549 9.65302 1.87549 10.383C1.87549 11.113 3.05549 12.013 5.15549 12.643C5.40549 11.883 5.70549 11.133 6.04549 10.383ZM15.0455 12.643L14.7455 13.153C15.0555 13.103 15.3555 13.053 15.6255 12.993C15.5555 12.713 15.4455 12.423 15.3355 12.133L15.0455 12.643ZM12.1555 16.683C13.7455 18.183 15.1255 18.763 15.7455 18.383C16.3855 18.033 16.5755 16.563 16.0655 14.423C15.2955 14.583 14.4855 14.703 13.6655 14.783C13.1855 15.453 12.6755 16.093 12.1555 16.683ZM7.20549 8.12302L7.50549 7.61302C7.19549 7.66302 6.89549 7.71302 6.62549 7.77302C6.69549 8.05302 6.80549 8.34302 6.91549 8.63302L7.20549 8.12302ZM10.0955 4.08302C8.50549 2.58302 7.12549 2.00302 6.49549 2.38302C5.86549 2.73302 5.67549 4.20302 6.18549 6.34302C6.9786 6.18087 7.77971 6.06071 8.58549 5.98302C9.06549 5.31302 9.57549 4.67302 10.0955 4.08302Z" fill="black"/>
</svg>
