<svg width="13" height="14" viewBox="0 0 13 14" fill="none" xmlns="http://www.w3.org/2000/svg">
<path d="M12.1875 9.4375C11.9573 9.4375 11.7645 9.3595 11.609 9.2035C11.453 9.04804 11.375 8.85521 11.375 8.625V2.125H4.875C4.64479 2.125 4.45196 2.047 4.2965 1.891C4.1405 1.73554 4.0625 1.54271 4.0625 1.3125C4.0625 1.08229 4.1405 0.889187 4.2965 0.733187C4.45196 0.577729 4.64479 0.5 4.875 0.5H12.1875C12.4177 0.5 12.6105 0.577729 12.766 0.733187C12.922 0.889187 13 1.08229 13 1.3125V8.625C13 8.85521 12.922 9.04804 12.766 9.2035C12.6105 9.3595 12.4177 9.4375 12.1875 9.4375ZM8.125 13.5C7.89479 13.5 7.70196 13.422 7.5465 13.266C7.3905 13.1105 7.3125 12.9177 7.3125 12.6875V6.1875H0.8125C0.582292 6.1875 0.389458 6.1095 0.234 5.9535C0.0780001 5.79804 0 5.60521 0 5.375C0 5.14479 0.0780001 4.95169 0.234 4.79569C0.389458 4.64023 0.582292 4.5625 0.8125 4.5625H8.125C8.35521 4.5625 8.54831 4.64023 8.70431 4.79569C8.85977 4.95169 8.9375 5.14479 8.9375 5.375V12.6875C8.9375 12.9177 8.85977 13.1105 8.70431 13.266C8.54831 13.422 8.35521 13.5 8.125 13.5Z" fill="#8B2CF5"/>
</svg>
