<svg width="15" height="16" viewBox="0 0 15 16" fill="none" xmlns="http://www.w3.org/2000/svg">
<g clip-path="url(#clip0_629_53)">
<path d="M14.9531 11.8397C15.0311 12.2885 15.0101 12.749 14.8913 13.1889C14.7726 13.6288 14.5592 14.0374 14.2659 14.3861C13.9727 14.7347 13.6067 15.0151 13.1937 15.2074C12.7807 15.3998 12.3306 15.4995 11.875 15.4997H10C9.83426 15.4997 9.67529 15.4338 9.55808 15.3166C9.44087 15.1994 9.37502 15.0404 9.37502 14.8747V13.2559C8.77859 13.495 8.14259 13.6201 7.50002 13.6247C6.85707 13.6181 6.22106 13.4909 5.62502 13.2497V14.8747C5.62502 15.0404 5.55918 15.1994 5.44197 15.3166C5.32476 15.4338 5.16578 15.4997 5.00002 15.4997H3.12502C2.66942 15.4995 2.21934 15.3998 1.80634 15.2074C1.39333 15.0151 1.02739 14.7347 0.734135 14.3861C0.440884 14.0374 0.227424 13.6288 0.10871 13.1889C-0.0100043 12.749 -0.0311003 12.2885 0.0468996 11.8397L0.2344 10.7522C0.296748 10.3905 0.466021 10.0557 0.720389 9.79115C0.974757 9.52656 1.30256 9.34424 1.66151 9.2677C2.02047 9.19116 2.39413 9.22391 2.7343 9.36172C3.07447 9.49954 3.36556 9.7361 3.57002 10.0409C4.36002 11.2022 5.88065 12.3747 7.50002 12.3747C9.45627 12.3747 11.3838 10.6378 11.9563 9.01465C12.0022 8.89265 12.0841 8.78747 12.1912 8.71303C12.2982 8.63859 12.4253 8.5984 12.5557 8.59778L12.8257 8.60215C12.9467 8.60364 13.0668 8.58106 13.179 8.53572C13.2912 8.49039 13.3933 8.42319 13.4793 8.33805C13.5653 8.25292 13.6335 8.15153 13.68 8.03978C13.7265 7.92804 13.7503 7.80817 13.75 7.68715C13.7498 7.46794 13.6728 7.25574 13.5323 7.08744C13.3919 6.91913 13.1969 6.80536 12.9813 6.7659C12.8483 6.74178 12.7267 6.67521 12.6348 6.57616C12.5428 6.47711 12.4855 6.35093 12.4713 6.21653C12.3884 5.42627 12.1174 4.66737 11.681 4.00331C11.2447 3.33926 10.6556 2.78937 9.96315 2.39965C9.78638 2.9529 9.55021 3.48538 9.25877 3.98778C8.44754 5.13788 7.38917 6.09182 6.16127 6.77965C6.34845 6.82561 6.51691 6.92813 6.64372 7.07326C6.77053 7.2184 6.84953 7.39909 6.86996 7.59073C6.89039 7.78238 6.85126 7.97566 6.75789 8.14427C6.66453 8.31288 6.52146 8.44861 6.34819 8.53299C6.17491 8.61737 5.97983 8.64629 5.78953 8.61582C5.59922 8.58535 5.42293 8.49697 5.28466 8.36271C5.14638 8.22845 5.05285 8.05483 5.01679 7.86551C4.98074 7.67618 5.00391 7.48034 5.08315 7.30465C3.64616 7.88652 2.0924 8.12204 0.547525 7.99215C0.418757 7.97489 0.298568 7.91794 0.203673 7.8292C0.108778 7.74047 0.0438936 7.62436 0.0180443 7.49704C-0.00780504 7.36972 0.0066654 7.23751 0.0594431 7.11879C0.112221 7.00008 0.200682 6.90076 0.312525 6.83465C0.690357 6.40597 0.971513 5.901 1.1369 5.35403C1.95252 3.4209 3.18752 0.499651 7.50002 0.499651C8.9715 0.496165 10.3968 1.01343 11.5235 1.95988C12.6502 2.90632 13.4057 4.22091 13.6563 5.6709C14.054 5.83718 14.3937 6.11726 14.6328 6.47598C14.8719 6.8347 14.9996 7.25606 15 7.68715C14.999 8.20651 14.8093 8.7078 14.4663 9.09778C14.4706 9.11403 14.4819 9.12715 14.485 9.14465L14.9531 11.8397ZM10 7.68715C10 7.50173 9.94504 7.32048 9.84203 7.1663C9.73901 7.01213 9.5926 6.89197 9.42129 6.82101C9.24998 6.75006 9.06148 6.73149 8.87963 6.76766C8.69777 6.80384 8.53072 6.89313 8.39961 7.02424C8.2685 7.15535 8.17921 7.3224 8.14304 7.50425C8.10686 7.68611 8.12543 7.87461 8.19639 8.04592C8.26734 8.21722 8.38751 8.36364 8.54168 8.46665C8.69585 8.56967 8.8771 8.62465 9.06252 8.62465C9.31116 8.62465 9.54962 8.52588 9.72544 8.35006C9.90125 8.17425 10 7.93579 10 7.68715Z" fill="white"/>
</g>
<path d="M7.17675 7.52576C7.1596 7.52576 7.14315 7.54846 7.13103 7.58888C7.1189 7.6293 7.11209 7.68412 7.11209 7.74128C7.11209 7.79843 7.1189 7.85325 7.13103 7.89367C7.14315 7.93409 7.1596 7.95679 7.17675 7.95679H7.8233C7.84045 7.95679 7.85689 7.93409 7.86902 7.89367C7.88114 7.85325 7.88795 7.79843 7.88795 7.74128C7.88795 7.68412 7.88114 7.6293 7.86902 7.58888C7.85689 7.54846 7.84045 7.52576 7.8233 7.52576H7.17675Z" fill="white"/>
<g clip-path="url(#clip1_629_53)">
<path d="M7.95656 8.7664C7.94755 8.75739 7.93686 8.75024 7.92509 8.74536C7.91332 8.74049 7.9007 8.73798 7.88796 8.73798C7.87522 8.73798 7.8626 8.74049 7.85083 8.74536C7.83906 8.75024 7.82837 8.75739 7.81936 8.7664L7.52285 9.06285C7.51679 9.06891 7.50857 9.07231 7.5 9.07231C7.49142 9.07231 7.4832 9.06891 7.47714 9.06285L7.1807 8.7664C7.16251 8.74821 7.13784 8.73799 7.11212 8.73798C7.0864 8.73797 7.06172 8.74819 7.04353 8.76637C7.02534 8.78456 7.01511 8.80922 7.01511 8.83495C7.0151 8.86067 7.02531 8.88534 7.0435 8.90354L7.34001 9.20005C7.36102 9.22106 7.38597 9.23773 7.41342 9.24911C7.44088 9.26048 7.47031 9.26633 7.50003 9.26633C7.52975 9.26633 7.55918 9.26048 7.58663 9.24911C7.61409 9.23773 7.63904 9.22106 7.66005 9.20005L7.95656 8.90354C7.97474 8.88535 7.98495 8.86069 7.98495 8.83497C7.98495 8.80925 7.97474 8.78459 7.95656 8.7664Z" fill="white"/>
</g>
<defs>
<clipPath id="clip0_629_53">
<rect width="15" height="15" fill="white" transform="translate(0 0.5)"/>
</clipPath>
<clipPath id="clip1_629_53">
<rect width="1.55172" height="1.55172" fill="white" transform="translate(6.72415 8.25861)"/>
</clipPath>
</defs>
</svg>
