<svg width="39" height="38" viewBox="0 0 39 38" fill="none" xmlns="http://www.w3.org/2000/svg">
<path d="M10.3104 30.7899C9.56607 35.1451 5.43212 38.0722 1.077 37.3278L0.149272 37.1692L0.630622 34.3529C1.37498 29.9978 5.50893 27.0707 9.86405 27.8151L10.7918 27.9736L10.3104 30.7899Z" fill="#D9D9D9"/>
<path d="M1 8C1 3.58172 4.58172 0 9 0H39V2.85714C39 7.27542 35.4183 10.8571 31 10.8571H1V8Z" fill="#8F01C2"/>
<path d="M1 21.5714C1 17.1531 4.58172 13.5714 9 13.5714H23.3529V16.4286C23.3529 20.8468 19.7712 24.4286 15.3529 24.4286H1V21.5714Z" fill="#B983FF"/>
</svg>
